<svg width="21" height="22" viewBox="0 0 21 22" fill="none" xmlns="http://www.w3.org/2000/svg">
<path fill-rule="evenodd" clip-rule="evenodd" d="M2.7 0C1.98392 0 1.29716 0.286439 0.790811 0.796303C0.284463 1.30617 0 1.99769 0 2.71875V6.94792C0 7.66897 0.284463 8.3605 0.790811 8.87036C1.29716 9.38023 1.98392 9.66667 2.7 9.66667H6.9C7.61608 9.66667 8.30284 9.38023 8.80919 8.87036C9.31554 8.3605 9.6 7.66897 9.6 6.94792V2.71875C9.6 1.99769 9.31554 1.30617 8.80919 0.796303C8.30284 0.286439 7.61608 0 6.9 0H2.7ZM1.8 2.71875C1.8 2.4784 1.89482 2.24789 2.0636 2.07793C2.23239 1.90798 2.46131 1.8125 2.7 1.8125H6.9C7.1387 1.8125 7.36761 1.90798 7.5364 2.07793C7.70518 2.24789 7.8 2.4784 7.8 2.71875V6.94792C7.8 7.18827 7.70518 7.41878 7.5364 7.58873C7.36761 7.75869 7.1387 7.85417 6.9 7.85417H2.7C2.46131 7.85417 2.23239 7.75869 2.0636 7.58873C1.89482 7.41878 1.8 7.18827 1.8 6.94792V2.71875ZM2.7 11.4792C1.98392 11.4792 1.29716 11.7656 0.790811 12.2755C0.284463 12.7853 0 13.4769 0 14.1979V18.4271C0 19.1481 0.284463 19.8397 0.790811 20.3495C1.29716 20.8594 1.98392 21.1458 2.7 21.1458H6.9C7.61608 21.1458 8.30284 20.8594 8.80919 20.3495C9.31554 19.8397 9.6 19.1481 9.6 18.4271V14.1979C9.6 13.4769 9.31554 12.7853 8.80919 12.2755C8.30284 11.7656 7.61608 11.4792 6.9 11.4792H2.7ZM1.8 14.1979C1.8 13.9576 1.89482 13.7271 2.0636 13.5571C2.23239 13.3871 2.46131 13.2917 2.7 13.2917H6.9C7.1387 13.2917 7.36761 13.3871 7.5364 13.5571C7.70518 13.7271 7.8 13.9576 7.8 14.1979V18.4271C7.8 18.6674 7.70518 18.8979 7.5364 19.0679C7.36761 19.2379 7.1387 19.3333 6.9 19.3333H2.7C2.46131 19.3333 2.23239 19.2379 2.0636 19.0679C1.89482 18.8979 1.8 18.6674 1.8 18.4271V14.1979ZM11.4 2.71875C11.4 1.99769 11.6845 1.30617 12.1908 0.796303C12.6972 0.286439 13.3839 0 14.1 0H18.3C19.0161 0 19.7028 0.286439 20.2092 0.796303C20.7155 1.30617 21 1.99769 21 2.71875V6.94792C21 7.66897 20.7155 8.3605 20.2092 8.87036C19.7028 9.38023 19.0161 9.66667 18.3 9.66667H14.1C13.3839 9.66667 12.6972 9.38023 12.1908 8.87036C11.6845 8.3605 11.4 7.66897 11.4 6.94792V2.71875ZM14.1 1.8125C13.8613 1.8125 13.6324 1.90798 13.4636 2.07793C13.2948 2.24789 13.2 2.4784 13.2 2.71875V6.94792C13.2 7.44817 13.602 7.85417 14.1 7.85417H18.3C18.5387 7.85417 18.7676 7.75869 18.9364 7.58873C19.1052 7.41878 19.2 7.18827 19.2 6.94792V2.71875C19.2 2.4784 19.1052 2.24789 18.9364 2.07793C18.7676 1.90798 18.5387 1.8125 18.3 1.8125H14.1ZM14.1 11.4792C13.3839 11.4792 12.6972 11.7656 12.1908 12.2755C11.6845 12.7853 11.4 13.4769 11.4 14.1979V18.4271C11.4 19.1481 11.6845 19.8397 12.1908 20.3495C12.6972 20.8594 13.3839 21.1458 14.1 21.1458H18.3C19.0161 21.1458 19.7028 20.8594 20.2092 20.3495C20.7155 19.8397 21 19.1481 21 18.4271V14.1979C21 13.4769 20.7155 12.7853 20.2092 12.2755C19.7028 11.7656 19.0161 11.4792 18.3 11.4792H14.1ZM13.2 14.1979C13.2 13.9576 13.2948 13.7271 13.4636 13.5571C13.6324 13.3871 13.8613 13.2917 14.1 13.2917H18.3C18.5387 13.2917 18.7676 13.3871 18.9364 13.5571C19.1052 13.7271 19.2 13.9576 19.2 14.1979V18.4271C19.2 18.6674 19.1052 18.8979 18.9364 19.0679C18.7676 19.2379 18.5387 19.3333 18.3 19.3333H14.1C13.8613 19.3333 13.6324 19.2379 13.4636 19.0679C13.2948 18.8979 13.2 18.6674 13.2 18.4271V14.1979Z" fill="#C0934B"/>
</svg>
