<svg width="15" height="15" viewBox="0 0 15 15" fill="none" xmlns="http://www.w3.org/2000/svg">
<path d="M7.16667 0.5C3.48458 0.5 0.5 3.48458 0.5 7.16667C0.5 10.8488 3.48458 13.8333 7.16667 13.8333C10.8488 13.8333 13.8333 10.8488 13.8333 7.16667C13.8333 3.48458 10.8488 0.5 7.16667 0.5ZM7.16667 13.4167C3.72042 13.4167 0.916667 10.6129 0.916667 7.16667C0.916667 3.72042 3.72042 0.916667 7.16667 0.916667C10.6129 0.916667 13.4167 3.72042 13.4167 7.16667C13.4167 10.6129 10.6129 13.4167 7.16667 13.4167Z" stroke="#5ABE75"/>
<path d="M9.93271 4.55493L6.02104 8.90118L4.37271 7.25285L4.07812 7.54743L6.03729 9.5066L10.2427 4.83368L9.93271 4.55493Z" stroke="#5ABE75"/>
</svg>
