<svg width="21" height="21" viewBox="0 0 21 21" fill="none" xmlns="http://www.w3.org/2000/svg">
<path fill-rule="evenodd" clip-rule="evenodd" d="M10.4167 1.14452e-10C11.7846 -6.41211e-06 13.1391 0.269423 14.4029 0.792906C15.6668 1.31639 16.8151 2.08367 17.7824 3.05095C18.7496 4.01823 19.5169 5.16655 20.0404 6.43036C20.5639 7.69417 20.8334 9.04871 20.8334 10.4167C20.8334 16.1696 16.1696 20.8334 10.4167 20.8334C4.66372 20.8334 0 16.1696 0 10.4167C0 4.66372 4.66372 1.14452e-10 10.4167 1.14452e-10ZM11.4584 11.4584H9.375C6.79614 11.4584 4.58213 13.0202 3.6272 15.2498C5.13813 17.3685 7.61607 18.75 10.4167 18.75C13.2172 18.75 15.6952 17.3685 17.2062 15.2496C16.2512 13.0202 14.0372 11.4584 11.4584 11.4584ZM10.4167 3.125C8.69077 3.125 7.29165 4.52412 7.29165 6.25C7.29165 7.97588 8.69077 9.375 10.4167 9.375C12.1425 9.375 13.5417 7.97588 13.5417 6.25C13.5417 4.52412 12.1426 3.125 10.4167 3.125Z" fill="#C0934B"/>
</svg>
