<svg width="29" height="20" viewBox="0 0 29 20" fill="none" xmlns="http://www.w3.org/2000/svg">
<path d="M9.3578 15.0279C10.1408 16.692 11.3109 18.2827 12.8415 19.7638C9.63305 19.2821 6.9653 17.3239 5.51651 14.6155L9.35774 15.0279H9.3578ZM12.7833 0.108662C9.65754 0.598447 7.05469 2.48713 5.59869 5.10179L9.35871 4.73147C10.132 3.10099 11.2844 1.54913 12.7832 0.108633L12.7833 0.108662ZM13.9622 4.78099L14.0143 0H14.0037C12.322 1.46786 11.0423 3.05687 10.1894 4.73862L13.9621 4.7811L13.9622 4.78099ZM5.84145 6.26561L5.14685 6.25942L4.46016 6.25052L4.40625 11.2162L1.62604 6.22046L0.0759668 6.20361L0 13.27L0.691084 13.2797L1.37862 13.2858L1.43344 8.19196L4.29413 13.3177L5.76648 13.3345L5.84159 6.26549L5.84145 6.26561ZM12.4492 7.59214L12.4554 6.96208L12.4633 6.33639L7.25985 6.28072L7.18389 13.3497L12.5491 13.4063L12.5561 12.778L12.5623 12.1514L8.67472 12.1099L8.69414 10.2655L12.1505 10.3026L12.1567 9.69633L12.1629 9.08654L8.7065 9.05027L8.72335 7.55142L12.4492 7.59205V7.59214ZM19.5032 11.5442L18.5346 6.40254L16.9625 6.38394L15.8975 11.5477L14.7717 6.36185L13.2366 6.34418L15.1278 13.4344L15.8286 13.4414L16.5312 13.4503L17.7004 7.89519L18.7759 13.4733L19.4811 13.483L20.1809 13.4901L22.2242 6.44227L20.7315 6.42633L19.5031 11.5441L19.5032 11.5442ZM14.7734 0.00876009H14.7628L14.7116 4.7889L18.487 4.82871C17.6687 3.12838 16.4244 1.51289 14.7735 0.00876009H14.7734ZM22.8367 4.87465C21.2654 2.25202 18.5842 0.433184 15.4589 0.0640431C17.4609 1.61449 18.5788 3.19023 19.3185 4.83747L22.8366 4.87456L22.8367 4.87465ZM15.5122 19.7921C18.7189 19.3811 21.4122 17.4938 22.9222 14.8446L19.0976 15.133C18.2784 16.7794 17.0729 18.3436 15.5123 19.7921L15.5122 19.7921ZM18.2607 15.1242L14.6011 15.0844L14.5516 19.6498C16.1617 18.2473 17.4069 16.7246 18.2606 15.1242L18.2607 15.1242ZM28.0065 10.1629C27.6619 9.85802 26.9796 9.58409 25.9535 9.34632C25.2466 9.17666 24.7844 9.03788 24.5688 8.91773C24.3487 8.80192 24.2382 8.63669 24.2409 8.42376C24.2427 8.13305 24.3514 7.89703 24.5661 7.73528C24.7773 7.57884 25.0725 7.49845 25.4463 7.50372C25.8794 7.50727 26.2293 7.61159 26.4971 7.80861C26.7631 8.00748 26.9072 8.27347 26.9284 8.61108L28.3662 8.62875C28.3202 7.91736 28.0507 7.35524 27.5576 6.93284C27.0672 6.51041 26.4237 6.29569 25.632 6.28772C24.7871 6.27803 24.1129 6.47332 23.6118 6.86569C23.1116 7.26255 22.858 7.8104 22.8508 8.4927C22.8447 9.10515 23.0267 9.55761 23.397 9.85187C23.7725 10.1444 24.5202 10.4237 25.6373 10.6843C26.2453 10.8258 26.6404 10.9645 26.8259 11.0882C27.0133 11.2155 27.107 11.4099 27.1043 11.6786C27.1017 11.9481 26.9665 12.1549 26.7004 12.3052C26.4335 12.4536 26.0668 12.5261 25.594 12.5208C25.1371 12.5155 24.7792 12.4121 24.5264 12.2062C24.2702 12.0037 24.1394 11.7166 24.127 11.3375L22.7051 11.3225C22.7307 12.086 22.995 12.6763 23.4934 13.0952C23.9927 13.5177 24.69 13.7307 25.5817 13.7394C26.4751 13.7483 27.1812 13.5654 27.708 13.1783C28.2364 12.793 28.5016 12.2707 28.5086 11.6061C28.5192 10.9468 28.3495 10.4643 28.0066 10.1629L28.0065 10.1629ZM13.8031 19.6375L13.8526 15.0774L10.193 15.0376C11.0149 16.6548 12.2247 18.2031 13.803 19.6375L13.8031 19.6375Z" fill="#C0934B"/>
</svg>
