<svg width="20" height="20" viewBox="0 0 20 20" fill="none" xmlns="http://www.w3.org/2000/svg">
<rect width="30" height="30" transform="translate(-5 -5)" fill="white"/>
<path d="M2.5 11.875H8.125V13.75H2.5V11.875ZM2.5 15.625H11.875V17.5H2.5V15.625Z" fill="#C0934B"/>
<path d="M19.375 -1.25H0.625C0.127947 -1.24926 -0.348534 -1.05147 -0.700004 -0.700004C-1.05147 -0.348534 -1.24926 0.127947 -1.25 0.625V19.375C-1.24926 19.8721 -1.05147 20.3485 -0.700004 20.7C-0.348534 21.0515 0.127947 21.2493 0.625 21.25H19.375C19.8721 21.2493 20.3485 21.0515 20.7 20.7C21.0515 20.3485 21.2493 19.8721 21.25 19.375V0.625C21.2493 0.127947 21.0515 -0.348534 20.7 -0.700004C20.3485 -1.05147 19.8721 -1.24926 19.375 -1.25ZM11.875 0.625V4.375H8.125V0.625H11.875ZM0.625 19.375V0.625H6.25V6.25H13.75V0.625H19.375L19.3759 19.375H0.625Z" fill="#C0934B"/>
</svg>
