<svg width="25" height="18" viewBox="0 0 25 18" fill="none" xmlns="http://www.w3.org/2000/svg">
<path fill-rule="evenodd" clip-rule="evenodd" d="M0 5C0 3.25 7.45058e-08 2.375 0.34 1.70625C0.639657 1.11794 1.11794 0.639656 1.70625 0.34C2.375 -2.23517e-07 3.25 0 5 0H20C21.75 0 22.625 -2.23517e-07 23.2938 0.34C23.8816 0.639869 24.3594 1.11813 24.6587 1.70625C25 2.375 25 3.25 25 5H0ZM0 7.5H25V12.5C25 14.25 25 15.125 24.6587 15.7938C24.3592 16.3814 23.8814 16.8592 23.2938 17.1587C22.625 17.5 21.75 17.5 20 17.5H5C3.25 17.5 2.375 17.5 1.70625 17.1587C1.11813 16.8594 0.639869 16.3816 0.34 15.7938C7.45058e-08 15.125 0 14.25 0 12.5V7.5ZM3.75 12.5C3.75 12.8315 3.8817 13.1495 4.11612 13.3839C4.35054 13.6183 4.66848 13.75 5 13.75H8.75C9.08152 13.75 9.39946 13.6183 9.63388 13.3839C9.8683 13.1495 10 12.8315 10 12.5C10 12.1685 9.8683 11.8505 9.63388 11.6161C9.39946 11.3817 9.08152 11.25 8.75 11.25H5C4.66848 11.25 4.35054 11.3817 4.11612 11.6161C3.8817 11.8505 3.75 12.1685 3.75 12.5Z" fill="#C0934B"/>
</svg>
