<svg width="20" height="20" viewBox="0 0 20 20" fill="none" xmlns="http://www.w3.org/2000/svg">
<path d="M11.9137 2.38066C11.0812 0.874414 8.91622 0.874414 8.08372 2.38066L1.52559 14.255C0.720592 15.7125 1.77559 17.5 3.44059 17.5H16.5575C18.2225 17.5 19.2775 15.7125 18.4718 14.255L11.9137 2.38066ZM10.78 13.75C10.78 13.9572 10.6977 14.156 10.5511 14.3025C10.4046 14.449 10.2059 14.5313 9.99872 14.5313C9.79152 14.5313 9.5928 14.449 9.44629 14.3025C9.29978 14.156 9.21747 13.9572 9.21747 13.75C9.21747 13.5428 9.29978 13.3441 9.44629 13.1976C9.5928 13.0511 9.79152 12.9688 9.99872 12.9688C10.2059 12.9688 10.4046 13.0511 10.5511 13.1976C10.6977 13.3441 10.78 13.5428 10.78 13.75ZM9.99872 5.62504C10.1645 5.62504 10.3234 5.69089 10.4407 5.8081C10.5579 5.92531 10.6237 6.08428 10.6237 6.25004V11.25C10.6237 11.4158 10.5579 11.5748 10.4407 11.692C10.3234 11.8092 10.1645 11.875 9.99872 11.875C9.83296 11.875 9.67399 11.8092 9.55678 11.692C9.43956 11.5748 9.37372 11.4158 9.37372 11.25V6.25004C9.37372 6.08428 9.43956 5.92531 9.55678 5.8081C9.67399 5.69089 9.83296 5.62504 9.99872 5.62504Z" fill="#F6B90F"/>
</svg>
