<svg width="15" height="18" viewBox="0 0 15 18" fill="none" xmlns="http://www.w3.org/2000/svg">
<path d="M1.56562 0.000215695C1.50681 -0.00132492 1.44807 0.00539336 1.39106 0.0201808C0.61952 0.221825 0.142329 0.810739 0.0311357 1.50124C-0.0800195 2.19174 0.11277 2.97069 0.50844 3.73125C1.28769 5.22905 2.89052 6.68501 4.94606 7.02109C4.73483 6.76357 4.52999 6.47517 4.33328 6.16366C2.86446 5.68197 1.69669 4.541 1.10744 3.40843C0.760799 2.74215 0.623738 2.08671 0.700025 1.61283C0.77635 1.13896 1.00397 0.833463 1.5596 0.688228C1.56204 0.687576 1.56216 0.686925 1.56306 0.686197C1.56061 0.680717 1.56701 0.683131 1.56306 0.686197C1.5647 0.689394 1.56695 0.692222 1.56969 0.694512C1.58953 0.713404 1.63328 0.780351 1.65279 0.891481C1.6918 1.1139 1.63724 1.48902 1.34647 1.87556L1.88466 2.29487C2.27695 1.77332 2.39864 1.21859 2.31995 0.770272C2.28064 0.546096 2.19207 0.342421 2.03272 0.190708C1.91321 0.076934 1.74101 0.00420106 1.56562 0.000215695ZM13.4344 0.000215695C13.259 0.00420106 13.0868 0.0769723 12.9673 0.190747C12.8079 0.342497 12.7194 0.546134 12.68 0.770311C12.6014 1.21863 12.7231 1.77332 13.1153 2.2949L13.6535 1.8756C13.3628 1.48906 13.3082 1.11393 13.3472 0.891519C13.3667 0.780389 13.4105 0.713443 13.4303 0.694551C13.433 0.69226 13.4353 0.689432 13.4369 0.686235C13.433 0.683169 13.4394 0.680755 13.4369 0.686235C13.4378 0.686963 13.438 0.687615 13.4404 0.688266C13.996 0.833502 14.2236 1.13892 14.3 1.61283C14.3763 2.08671 14.2392 2.74215 13.8926 3.40843C13.3033 4.541 12.1355 5.682 10.6667 6.16366C10.4701 6.47517 10.2651 6.76357 10.0539 7.02109C12.1095 6.68501 13.7123 5.22905 14.4916 3.73125C14.8872 2.97069 15.08 2.19174 14.9689 1.50124C14.8577 0.810701 14.3805 0.221825 13.6089 0.0201808C13.5519 0.00539336 13.4932 -0.00132492 13.4344 0.000215695ZM3.03557 0.295784C3.11637 1.69576 3.66665 3.47909 4.41134 4.92586C4.8145 5.70921 5.27272 6.39485 5.72024 6.86815C6.16779 7.34149 6.5963 7.5767 6.89753 7.5767H8.10247C8.4037 7.5767 8.83221 7.34149 9.27976 6.86815C9.72732 6.39481 10.1855 5.70921 10.5887 4.92586C11.3333 3.47906 11.8836 1.6958 11.9644 0.295784H3.03557ZM6.63395 8.26651V8.87965H8.36605V8.26651H6.63395ZM6.87663 9.56942C6.78408 10.5645 6.39481 11.7872 5.95648 12.4818H9.04352C8.60523 11.7872 8.21592 10.5645 8.12337 9.56942H6.87663ZM5.42902 13.1716V13.7081H9.57098V13.1716H5.42902ZM4.22408 14.3978V18H10.7759V14.3978H4.22408ZM5.09013 15.2792H9.90987V17.1186H5.09013V15.2792Z" fill="#C0934B"/>
</svg>
