<svg width="18" height="18" viewBox="0 0 18 18" fill="none" xmlns="http://www.w3.org/2000/svg">
<path d="M15.3714 13.5208C14.9154 13.1031 14.5163 12.6243 14.1846 12.0973C13.8226 11.3698 13.6055 10.5753 13.5463 9.76041V7.36038C13.5495 6.08049 13.0976 4.84348 12.2758 3.88177C11.4539 2.92005 10.3185 2.29983 9.083 2.13763V1.5109C9.083 1.33888 9.0165 1.17391 8.89813 1.05227C8.77975 0.930638 8.6192 0.862305 8.4518 0.862305C8.28439 0.862305 8.12385 0.930638 8.00547 1.05227C7.8871 1.17391 7.8206 1.33888 7.8206 1.5109V2.14734C6.59614 2.32124 5.4745 2.94521 4.66342 3.9037C3.85234 4.86218 3.40678 6.09022 3.40927 7.36038V9.76041C3.35006 10.5753 3.13305 11.3698 2.77098 12.0973C2.44516 12.6231 2.0524 13.1019 1.60314 13.5208C1.5527 13.5663 1.51228 13.6224 1.48457 13.6852C1.45685 13.748 1.44247 13.8162 1.44238 13.8852V14.5459C1.44238 14.6748 1.4922 14.7983 1.58087 14.8894C1.66953 14.9806 1.7898 15.0317 1.91519 15.0317H15.0593C15.1847 15.0317 15.305 14.9806 15.3937 14.8894C15.4823 14.7983 15.5321 14.6748 15.5321 14.5459V13.8852C15.5321 13.8162 15.5177 13.748 15.49 13.6852C15.4622 13.6224 15.4218 13.5663 15.3714 13.5208ZM2.42583 14.0601C2.86574 13.6234 3.25306 13.1341 3.57949 12.6026C4.03557 11.7239 4.30167 10.7544 4.35962 9.76041V7.36038C4.34087 6.79099 4.43382 6.22355 4.63293 5.69185C4.83204 5.16015 5.13324 4.67505 5.5186 4.26545C5.90396 3.85585 6.36559 3.53012 6.87601 3.30766C7.38642 3.08519 7.93519 2.97055 8.48962 2.97055C9.04406 2.97055 9.59282 3.08519 10.1032 3.30766C10.6137 3.53012 11.0753 3.85585 11.4606 4.26545C11.846 4.67505 12.1472 5.16015 12.3463 5.69185C12.5454 6.22355 12.6384 6.79099 12.6196 7.36038V9.76041C12.6776 10.7544 12.9437 11.7239 13.3998 12.6026C13.7262 13.1341 14.1135 13.6234 14.5534 14.0601H2.42583Z" fill="white"/>
<path d="M8.5103 16.6546C8.80814 16.6475 9.09396 16.5325 9.31719 16.3298C9.54043 16.127 9.68671 15.8497 9.73015 15.5469H7.24316C7.28783 15.858 7.44095 16.1418 7.67404 16.3455C7.90712 16.5493 8.2043 16.6591 8.5103 16.6546Z" fill="white"/>
</svg>
