<svg width="30" height="30" viewBox="0 0 30 30" fill="none" xmlns="http://www.w3.org/2000/svg">
<path d="M19.6875 25.3125C19.1697 25.3125 18.75 24.8928 18.75 24.375C18.75 23.8572 19.1697 23.4375 19.6875 23.4375C20.2053 23.4375 20.625 23.8572 20.625 24.375C20.625 24.8928 20.2053 25.3125 19.6875 25.3125Z" stroke="#C0934B" stroke-linecap="round" stroke-linejoin="round"/>
<path d="M6.5625 25.3125C6.04473 25.3125 5.625 24.8928 5.625 24.375C5.625 23.8572 6.04473 23.4375 6.5625 23.4375C7.08027 23.4375 7.5 23.8572 7.5 24.375C7.5 24.8928 7.08027 25.3125 6.5625 25.3125Z" stroke="#C0934B" stroke-linecap="round" stroke-linejoin="round"/>
<path d="M27.1875 4.6875H23.4375L20.625 20.625H5.625" stroke="#C0934B" stroke-linecap="round" stroke-linejoin="round"/>
<path d="M20.625 16.875H6.00937C5.90097 16.8751 5.79588 16.8376 5.71202 16.7689C5.62815 16.7002 5.57069 16.6045 5.54941 16.4982L3.86191 8.06074C3.8483 7.99271 3.84995 7.9225 3.86677 7.85518C3.88358 7.78786 3.91512 7.72511 3.95913 7.67147C4.00313 7.61782 4.0585 7.57461 4.12123 7.54496C4.18396 7.51531 4.25249 7.49995 4.32188 7.5H22.5" stroke="#C0934B" stroke-linecap="round" stroke-linejoin="round"/>
</svg>
