<svg width="17" height="16" viewBox="0 0 17 16" fill="none" xmlns="http://www.w3.org/2000/svg">
<path d="M7.38852 1.45737C7.58106 0.903501 7.6773 0.626575 7.81969 0.549823C7.94287 0.483392 8.09117 0.483392 8.21443 0.549823C8.35674 0.626575 8.45297 0.903501 8.64552 1.45737L9.91832 5.11899C9.97313 5.27663 10.0005 5.35544 10.0499 5.41414C10.0935 5.46599 10.1491 5.5064 10.2119 5.53186C10.283 5.56068 10.3664 5.56237 10.5332 5.56577L14.4089 5.64476C14.9952 5.6567 15.2883 5.66268 15.4054 5.77434C15.5066 5.87098 15.5524 6.01207 15.5273 6.14976C15.4983 6.30888 15.2647 6.48596 14.7974 6.84027L11.7083 9.18219C11.5753 9.28308 11.5088 9.33348 11.4683 9.39852C11.4324 9.45608 11.4112 9.52145 11.4064 9.58899C11.401 9.66551 11.4251 9.74536 11.4734 9.90513L12.596 13.6156C12.7658 14.1768 12.8507 14.4575 12.7807 14.6032C12.72 14.7294 12.6 14.8165 12.4613 14.8352C12.301 14.8568 12.0604 14.6894 11.579 14.3544L8.39708 12.1403C8.26009 12.0449 8.19164 11.9973 8.1172 11.9787C8.05141 11.9624 7.98263 11.9624 7.91692 11.9787C7.84248 11.9973 7.77394 12.0449 7.63696 12.1403L4.45503 14.3544C3.97372 14.6894 3.73307 14.8568 3.57279 14.8352C3.43409 14.8165 3.31407 14.7294 3.25344 14.6032C3.18339 14.4575 3.2683 14.1768 3.43809 13.6156L4.56065 9.90513C4.60897 9.74536 4.63313 9.66551 4.62769 9.58899C4.62288 9.52145 4.60164 9.45608 4.5658 9.39852C4.52524 9.33348 4.45874 9.28308 4.32576 9.18219L1.23666 6.84027C0.76939 6.48596 0.535756 6.30888 0.506753 6.14976C0.481643 6.01207 0.527489 5.87098 0.628736 5.77434C0.745711 5.66268 1.03884 5.65671 1.62509 5.64476L5.50081 5.56577C5.66766 5.56237 5.75109 5.56068 5.82217 5.53186C5.88496 5.5064 5.94059 5.46599 5.98419 5.41414C6.03356 5.35544 6.06096 5.27663 6.11576 5.11899L7.38852 1.45737Z" stroke="white" stroke-linecap="round" stroke-linejoin="round"/>
</svg>
