<svg width="19" height="22" viewBox="0 0 19 22" fill="none" xmlns="http://www.w3.org/2000/svg">
<path d="M11.25 21.5875L11.1775 18.75H9.375C6.76917 18.75 4.55542 17.8392 2.73375 16.0175C0.912084 14.1958 0.000833904 11.9817 5.71037e-07 9.375C-0.000832762 6.76833 0.910417 4.55458 2.73375 2.73375C4.55708 0.912916 6.77083 0.00166667 9.375 0C10.6783 0 11.8983 0.244167 13.035 0.7325C14.1717 1.22 15.1646 1.88833 16.0138 2.7375C16.8629 3.58667 17.5313 4.57917 18.0188 5.715C18.5063 6.8525 18.75 8.0725 18.75 9.375C18.75 10.6492 18.5629 11.8729 18.1888 13.0463C17.8146 14.2196 17.2971 15.3283 16.6362 16.3725C15.9754 17.4167 15.1838 18.3792 14.2613 19.26C13.3388 20.1408 12.335 20.9162 11.25 21.5862M12.5 19.1875C13.9792 17.9375 15.1825 16.4742 16.11 14.7975C17.0375 13.1208 17.5008 11.3133 17.5 9.375C17.5 7.10417 16.7133 5.1825 15.14 3.61C13.5667 2.0375 11.645 1.25083 9.375 1.25C7.105 1.24917 5.18333 2.03583 3.61 3.61C2.03667 5.18417 1.25 7.10583 1.25 9.375C1.25 11.6442 2.03667 13.5662 3.61 15.1412C5.18333 16.7162 7.105 17.5025 9.375 17.5H12.5V19.1875ZM9.41625 15.7137C9.67458 15.7137 9.8925 15.625 10.07 15.4475C10.2475 15.27 10.3363 15.0521 10.3363 14.7937C10.3363 14.5354 10.2475 14.3175 10.07 14.14C9.8925 13.9625 9.67458 13.8733 9.41625 13.8725C9.15792 13.8725 8.94 13.9617 8.7625 14.14C8.58417 14.3175 8.495 14.5354 8.495 14.7937C8.495 15.0521 8.58375 15.27 8.76125 15.4475C8.93958 15.625 9.15792 15.7137 9.41625 15.7137ZM8.87 12.0575H9.97625C10.0079 11.545 10.1062 11.1396 10.2712 10.8413C10.4362 10.5438 10.8279 10.0854 11.4462 9.46625C11.8062 9.10792 12.0912 8.74167 12.3012 8.3675C12.5104 7.99417 12.615 7.56583 12.615 7.0825C12.615 6.18 12.3038 5.47125 11.6813 4.95625C11.0588 4.44125 10.3058 4.18333 9.4225 4.1825C8.65 4.1825 7.99583 4.39375 7.46 4.81625C6.9225 5.23875 6.52875 5.7425 6.27875 6.3275L7.3075 6.72625C7.47583 6.35625 7.72167 6.01917 8.045 5.715C8.36917 5.41167 8.82833 5.26 9.4225 5.26C10.1292 5.26 10.6513 5.45208 10.9888 5.83625C11.3263 6.22125 11.495 6.64125 11.495 7.09625C11.495 7.51458 11.3867 7.86833 11.17 8.1575C10.9542 8.44667 10.6763 8.76125 10.3363 9.10125C9.73542 9.63042 9.34083 10.1054 9.1525 10.5262C8.96417 10.9471 8.87 11.4575 8.87 12.0575Z" fill="#C0934B"/>
</svg>
