<svg width="30" height="29" viewBox="0 0 30 29" fill="none" xmlns="http://www.w3.org/2000/svg">
<g clip-path="url(#clip0_938_958)">
<g clip-path="url(#clip1_938_958)">
<path d="M29.7656 19.3644V30.7477H6.2748V26.8555H13.8441V23.3522H20.9625V19.3644H29.7656ZM13.2627 3.30183C13.2627 4.43378 14.1444 5.35134 15.2321 5.35134C16.3199 5.35134 17.2016 4.43378 17.2016 3.30183C17.2016 2.16988 16.3199 1.25232 15.2321 1.25232C14.1444 1.25232 13.2627 2.16988 13.2627 3.30183ZM22.2557 13.2159C22.0658 13.6727 21.5439 13.8578 21.1049 13.6479L17.4507 11.8577C17.2372 11.7589 17.0592 11.5613 16.9881 11.3268L16.3711 9.51195L15.5169 13.9587L18.3989 14.0204C19.0158 14.0327 19.5022 14.576 19.4904 15.2179L19.3362 21.4373C19.3243 22.0793 18.8142 22.5855 18.2091 22.5855C18.2091 22.5855 18.1972 22.5855 18.1853 22.5855C17.5564 22.5732 17.0701 22.0299 17.082 21.3879L17.2125 16.329L13.6186 16.2426L12.7881 20.5246C12.7525 20.6974 12.6813 20.8827 12.5864 21.0309L9.51328 25.631C9.12176 26.2235 8.3625 26.3471 7.79297 25.9396C7.23539 25.5322 7.10484 24.7421 7.5082 24.1617L10.4271 19.8332L12.2978 8.80208L8.57613 12.3787C8.51098 12.4412 8.43867 12.4907 8.3625 12.5279L8.71078 12.8904L7.69359 13.9489L9.38883 15.7131L8.03262 17.1244L2.60777 11.4789L3.96398 10.0676L5.65922 11.8317L6.67641 10.7732L7.24395 11.3637C7.28719 11.2673 7.34742 11.1774 7.42594 11.0998L12.0877 6.49378C12.7029 5.94281 13.6898 5.61037 14.5441 5.75854L15.3509 5.91903C16.4305 6.11659 17.2609 6.88207 17.6051 7.88207L18.483 10.3884L21.8168 12.0182C22.2557 12.2159 22.4455 12.759 22.2557 13.2159ZM7.86316 12.8904L6.67641 11.6554L6.08309 12.2728L7.26984 13.5078L7.86316 12.8904ZM6.67641 16.4187L6.33738 16.7715L5.65934 16.0657L5.99836 15.7129L3.96398 13.5959L3.62496 13.9487L2.9468 13.2429L3.28582 12.8901L2.26863 11.8316L0.234375 13.9488L5.65934 19.5943L7.69371 17.4772L6.67641 16.4187Z" fill="#C0934B"/>
</g>
</g>
<defs>
<clipPath id="clip0_938_958">
<rect width="30" height="29" fill="white"/>
</clipPath>
<clipPath id="clip1_938_958">
<rect width="30" height="30" fill="white" transform="translate(0 1)"/>
</clipPath>
</defs>
</svg>
