<svg width="21" height="21" viewBox="0 0 21 21" fill="none" xmlns="http://www.w3.org/2000/svg">
<path d="M0.716301 20.432C1.14373 20.8169 1.70654 21.0162 2.28092 20.9861C2.85529 20.956 3.39418 20.6989 3.77904 20.2715L15.2719 7.50744L15.6935 15.5522C15.7427 16.112 16.0072 16.6308 16.4314 16.9994C16.8555 17.368 17.4062 17.5575 17.9673 17.5281C18.5285 17.4987 19.0563 17.2526 19.4396 16.8417C19.8229 16.4308 20.0317 15.8872 20.0222 15.3254L19.3266 2.0535C19.2962 1.47962 19.0392 0.941271 18.6121 0.556724C18.185 0.172178 17.6228 -0.0271246 17.0488 0.00259581L3.77696 0.698145C3.48577 0.703118 3.19857 0.766691 2.93248 0.88507C2.66639 1.00345 2.42688 1.17421 2.22822 1.38717C2.02956 1.60012 1.87582 1.85091 1.77619 2.12457C1.67656 2.39823 1.63306 2.68915 1.64831 2.97998C1.66355 3.27082 1.73721 3.5556 1.86491 3.81735C1.9926 4.07909 2.1717 4.31244 2.39153 4.50346C2.61137 4.69448 2.86742 4.83927 3.14442 4.92919C3.42143 5.01911 3.7137 5.05231 4.00382 5.02682L12.0486 4.60521L0.55579 17.3693C-0.245225 18.2589 -0.173317 19.631 0.716301 20.432Z" fill="#C0934B"/>
</svg>
