<svg width="35" height="26" viewBox="0 0 35 26" fill="none" xmlns="http://www.w3.org/2000/svg">
<g filter="url(#filter0_d_678_3593)">
<path d="M2.76366 1.59333C3.78033 0.415 5.24033 0 6.83366 0C8.42699 0 9.88533 0.415 10.9037 1.59333C11.887 2.73 12.2503 4.34333 12.2503 6.25C12.2503 8.15667 11.887 9.77 10.9037 10.9067C9.88699 12.085 8.42699 12.5 6.83366 12.5C5.24033 12.5 3.78199 12.085 2.76366 10.9067C1.78033 9.77 1.41699 8.15667 1.41699 6.25C1.41699 4.34333 1.78033 2.73 2.76366 1.59333ZM28.5503 2.03333C28.7844 2.26771 28.9159 2.58542 28.9159 2.91667C28.9159 3.24792 28.7844 3.56562 28.5503 3.8L5.21699 27.1333C4.98003 27.3541 4.66662 27.4743 4.34279 27.4686C4.01895 27.4629 3.70998 27.3317 3.48096 27.1027C3.25193 26.8737 3.12075 26.5647 3.11503 26.2409C3.10932 25.917 3.22953 25.6036 3.45033 25.3667L26.7837 2.03333C27.018 1.79925 27.3357 1.66777 27.667 1.66777C27.9982 1.66777 28.316 1.79925 28.5503 2.03333ZM21.0953 18.26C22.1153 17.0817 23.5737 16.6667 25.167 16.6667C26.7603 16.6667 28.2187 17.0817 29.237 18.26C30.2203 19.3967 30.5837 21.01 30.5837 22.9167C30.5837 24.8233 30.2203 26.4367 29.237 27.5733C28.2203 28.7517 26.7603 29.1667 25.167 29.1667C23.5737 29.1667 22.1153 28.7517 21.0953 27.5733C20.1137 26.4367 19.7503 24.8233 19.7503 22.9167C19.7503 21.01 20.1137 19.3967 21.0953 18.26Z" fill="#C0934B" fill-opacity="0.2" shape-rendering="crispEdges"/>
</g>
<defs>
<filter id="filter0_d_678_3593" x="-2.58301" y="0" width="37.167" height="37.1667" filterUnits="userSpaceOnUse" color-interpolation-filters="sRGB">
<feFlood flood-opacity="0" result="BackgroundImageFix"/>
<feColorMatrix in="SourceAlpha" type="matrix" values="0 0 0 0 0 0 0 0 0 0 0 0 0 0 0 0 0 0 127 0" result="hardAlpha"/>
<feOffset dy="4"/>
<feGaussianBlur stdDeviation="2"/>
<feComposite in2="hardAlpha" operator="out"/>
<feColorMatrix type="matrix" values="0 0 0 0 0 0 0 0 0 0 0 0 0 0 0 0 0 0 0.25 0"/>
<feBlend mode="normal" in2="BackgroundImageFix" result="effect1_dropShadow_678_3593"/>
<feBlend mode="normal" in="SourceGraphic" in2="effect1_dropShadow_678_3593" result="shape"/>
</filter>
</defs>
</svg>
