<svg width="30" height="30" viewBox="0 0 30 30" fill="none" xmlns="http://www.w3.org/2000/svg">
<path d="M15 26C9.443 24.765 5 19.522 5 14V8L15 4L25 8V14C25 19.524 20.557 24.765 15 26ZM7 9V14C7.05715 16.3121 7.87036 18.5418 9.31518 20.3479C10.76 22.1539 12.7568 23.4367 15 24C17.2432 23.4367 19.24 22.1539 20.6848 20.3479C22.1296 18.5418 22.9429 16.3121 23 14V9L15 6L7 9Z" fill="#C0934B"/>
<path d="M15 14C16.3807 14 17.5 12.8807 17.5 11.5C17.5 10.1193 16.3807 9 15 9C13.6193 9 12.5 10.1193 12.5 11.5C12.5 12.8807 13.6193 14 15 14Z" fill="#C0934B"/>
<path d="M10 18C10.4927 18.8983 11.2154 19.6496 12.094 20.1767C12.9726 20.7039 13.9755 20.988 15 21C16.0245 20.988 17.0274 20.7039 17.906 20.1767C18.7846 19.6496 19.5073 18.8983 20 18C19.975 16.104 16.658 15 15 15C13.333 15 10.025 16.104 10 18Z" fill="#C0934B"/>
</svg>
