<svg width="18" height="18" viewBox="0 0 18 18" fill="none" xmlns="http://www.w3.org/2000/svg">
<path d="M15.3714 13.5209C14.9154 13.1032 14.5163 12.6244 14.1846 12.0973C13.8226 11.3698 13.6055 10.5753 13.5463 9.76047V7.36044C13.5495 6.08055 13.0976 4.84355 12.2758 3.88183C11.4539 2.92011 10.3185 2.29989 9.083 2.13769V1.51096C9.083 1.33894 9.0165 1.17397 8.89813 1.05233C8.77975 0.930699 8.6192 0.862366 8.4518 0.862366C8.28439 0.862366 8.12385 0.930699 8.00547 1.05233C7.8871 1.17397 7.8206 1.33894 7.8206 1.51096V2.1474C6.59614 2.3213 5.4745 2.94527 4.66342 3.90376C3.85234 4.86224 3.40678 6.09029 3.40927 7.36044V9.76047C3.35006 10.5753 3.13305 11.3698 2.77098 12.0973C2.44516 12.6232 2.0524 13.1019 1.60314 13.5209C1.5527 13.5664 1.51228 13.6224 1.48457 13.6852C1.45685 13.7481 1.44247 13.8162 1.44238 13.8852V14.546C1.44238 14.6748 1.4922 14.7984 1.58087 14.8895C1.66953 14.9806 1.7898 15.0318 1.91519 15.0318H15.0593C15.1847 15.0318 15.305 14.9806 15.3937 14.8895C15.4823 14.7984 15.5321 14.6748 15.5321 14.546V13.8852C15.5321 13.8162 15.5177 13.7481 15.49 13.6852C15.4622 13.6224 15.4218 13.5664 15.3714 13.5209ZM2.42583 14.0601C2.86574 13.6235 3.25306 13.1341 3.57949 12.6026C4.03557 11.724 4.30167 10.7545 4.35962 9.76047V7.36044C4.34087 6.79105 4.43382 6.22361 4.63293 5.69191C4.83204 5.16021 5.13324 4.67511 5.5186 4.26551C5.90396 3.85591 6.36559 3.53018 6.87601 3.30772C7.38642 3.08525 7.93519 2.97061 8.48962 2.97061C9.04406 2.97061 9.59282 3.08525 10.1032 3.30772C10.6137 3.53018 11.0753 3.85591 11.4606 4.26551C11.846 4.67511 12.1472 5.16021 12.3463 5.69191C12.5454 6.22361 12.6384 6.79105 12.6196 7.36044V9.76047C12.6776 10.7545 12.9437 11.724 13.3998 12.6026C13.7262 13.1341 14.1135 13.6235 14.5534 14.0601H2.42583Z" fill="white"/>
<path d="M8.5103 16.6545C8.80814 16.6474 9.09396 16.5324 9.31719 16.3296C9.54043 16.1269 9.68671 15.8496 9.73015 15.5468H7.24316C7.28783 15.8578 7.44095 16.1417 7.67404 16.3454C7.90712 16.5492 8.2043 16.659 8.5103 16.6545Z" fill="white"/>
</svg>
