<svg width="10" height="8" viewBox="0 0 10 8" fill="none" xmlns="http://www.w3.org/2000/svg">
<path d="M4.9803 5.35317C5.96773 5.35317 6.76821 4.55269 6.76821 3.56526C6.76821 2.57782 5.96773 1.77734 4.9803 1.77734C3.99286 1.77734 3.19238 2.57782 3.19238 3.56526C3.19238 4.55269 3.99286 5.35317 4.9803 5.35317Z" stroke="white"/>
<path d="M9.1627 3.02045C9.3609 3.26156 9.46 3.38161 9.46 3.56499C9.46 3.74838 9.3609 3.86843 9.1627 4.10954C8.43731 4.99022 6.83739 6.62999 4.98 6.62999C3.12261 6.62999 1.52269 4.99022 0.797304 4.10954C0.599101 3.86843 0.5 3.74838 0.5 3.56499C0.5 3.38161 0.599101 3.26156 0.797304 3.02045C1.52269 2.13977 3.12261 0.5 4.98 0.5C6.83739 0.5 8.43731 2.13977 9.1627 3.02045Z" stroke="white"/>
</svg>
