<svg width="13" height="13" viewBox="0 0 13 13" fill="none" xmlns="http://www.w3.org/2000/svg">
<path d="M2.11681 12.3838L0.298679 9.64734C0.277282 9.61497 0.262513 9.57868 0.255226 9.54056C0.247938 9.50245 0.248276 9.46327 0.25622 9.42529C0.264164 9.38731 0.279557 9.35128 0.301508 9.31928C0.32346 9.28729 0.351536 9.25996 0.384112 9.23887L1.52946 8.49402C1.59397 8.45266 1.672 8.43789 1.74717 8.45283C1.82234 8.46776 1.8888 8.51123 1.9326 8.57411L3.80146 11.2598C3.82365 11.2918 3.83927 11.3279 3.84739 11.366C3.85552 11.404 3.85599 11.4434 3.84879 11.4816C3.84158 11.5199 3.82684 11.5563 3.80543 11.5888C3.78401 11.6213 3.75634 11.6493 3.72403 11.671L2.53864 12.4719C2.50566 12.4953 2.46819 12.5117 2.42858 12.52C2.38898 12.5282 2.34809 12.5282 2.30848 12.52C2.26888 12.5117 2.23141 12.4953 2.19842 12.4719C2.16544 12.4485 2.13766 12.4185 2.11681 12.3838Z" stroke="white" stroke-width="0.5" stroke-linecap="round"/>
<path d="M2.13867 8.85981L4.05292 7.65577C4.11436 7.6174 4.18297 7.59193 4.25458 7.58092C4.32618 7.5699 4.39927 7.57357 4.46941 7.5917C5.14754 7.76523 7.1926 8.32854 7.94015 8.59017C8.50882 8.7904 8.74109 9.34837 8.50882 9.71946C8.19912 10.216 7.72923 10.16 7.39017 10.0665C7.34466 10.0524 7.30008 10.0355 7.25668 10.0158L5.92178 9.44715" stroke="white" stroke-width="0.5" stroke-linecap="round"/>
<path d="M3.62207 11.0304L4.2468 10.6726L7.78696 11.6417C7.82341 11.6516 7.86153 11.6535 7.89881 11.6476C7.93609 11.6416 7.97167 11.6278 8.00321 11.607C8.50247 11.2867 10.6383 9.87438 11.6902 9.12953C11.7772 9.0829 11.8511 9.01507 11.905 8.93233C11.9589 8.84959 11.9911 8.75459 11.9985 8.65613C12.006 8.55767 11.9885 8.45892 11.9476 8.36901C11.9068 8.2791 11.844 8.20093 11.765 8.14173C11.6422 8.03198 11.4871 7.96488 11.3231 7.95045C11.159 7.93601 10.9946 7.97502 10.8546 8.06164C10.4835 8.26721 9.46092 9.02808 9.46092 9.02808" stroke="white" stroke-width="0.5" stroke-linecap="round"/>
<path d="M8.2598 7.19124C10.1766 7.19124 11.7305 5.63739 11.7305 3.72062C11.7305 1.80385 10.1766 0.25 8.2598 0.25C6.34297 0.25 4.78906 1.80385 4.78906 3.72062C4.78906 5.63739 6.34297 7.19124 8.2598 7.19124Z" stroke="white" stroke-width="0.5" stroke-linecap="round"/>
<path d="M7.11816 1.9613H7.67348C8.20744 1.9613 8.81082 2.14017 8.81082 2.96511C8.81082 3.85947 8.05259 4.20119 7.24898 4.11042C7.23957 4.10925 7.23002 4.11107 7.22169 4.11561C7.21336 4.12015 7.20666 4.12719 7.20254 4.13573C7.19841 4.14427 7.19707 4.1539 7.19869 4.16324C7.20032 4.17259 7.20484 4.18119 7.21161 4.18784L8.92028 6.02727" stroke="white" stroke-width="0.5" stroke-linecap="round"/>
<path d="M9.46405 1.9613H7.5498" stroke="white" stroke-width="0.5" stroke-linecap="round"/>
<path d="M7.14648 2.99445H9.47722" stroke="white" stroke-width="0.5" stroke-linecap="round"/>
</svg>
