<svg width="25" height="20" viewBox="0 0 25 20" fill="none" xmlns="http://www.w3.org/2000/svg">
<path d="M12.5 0.625C13.5774 0.625 14.6108 1.05301 15.3726 1.81488C16.1345 2.57675 16.5625 3.61006 16.5625 4.6875C16.5625 5.76494 16.1345 6.79825 15.3726 7.56012C14.6108 8.32199 13.5774 8.75 12.5 8.75C11.4226 8.75 10.3892 8.32199 9.62738 7.56012C8.86551 6.79825 8.4375 5.76494 8.4375 4.6875C8.4375 3.61006 8.86551 2.57675 9.62738 1.81488C10.3892 1.05301 11.4226 0.625 12.5 0.625ZM3.75 3.4375C4.11934 3.4375 4.48507 3.51025 4.8263 3.65159C5.16753 3.79293 5.47757 4.0001 5.73874 4.26126C5.9999 4.52243 6.20707 4.83247 6.34841 5.1737C6.48975 5.51493 6.5625 5.88066 6.5625 6.25C6.5625 6.61934 6.48975 6.98507 6.34841 7.3263C6.20707 7.66753 5.9999 7.97757 5.73874 8.23874C5.47757 8.4999 5.16753 8.70707 4.8263 8.84841C4.48507 8.98975 4.11934 9.0625 3.75 9.0625C3.38066 9.0625 3.01493 8.98975 2.6737 8.84841C2.33247 8.70707 2.02243 8.4999 1.76126 8.23874C1.5001 7.97757 1.29293 7.66753 1.15159 7.3263C1.01025 6.98507 0.9375 6.61934 0.9375 6.25C0.9375 5.88066 1.01025 5.51493 1.15159 5.1737C1.29293 4.83247 1.5001 4.52243 1.76126 4.26126C2.02243 4.0001 2.33247 3.79293 2.6737 3.65159C3.01493 3.51025 3.38066 3.4375 3.75 3.4375ZM0 16.25C0 13.4883 2.23828 11.25 5 11.25C5.5 11.25 5.98438 11.3242 6.44141 11.4609C5.15625 12.8984 4.375 14.7969 4.375 16.875V17.5C4.375 17.9453 4.46875 18.3672 4.63672 18.75H1.25C0.558594 18.75 0 18.1914 0 17.5V16.25ZM20.3633 18.75C20.5312 18.3672 20.625 17.9453 20.625 17.5V16.875C20.625 14.7969 19.8438 12.8984 18.5586 11.4609C19.0156 11.3242 19.5 11.25 20 11.25C22.7617 11.25 25 13.4883 25 16.25V17.5C25 18.1914 24.4414 18.75 23.75 18.75H20.3633ZM18.4375 6.25C18.4375 5.50408 18.7338 4.78871 19.2613 4.26126C19.7887 3.73382 20.5041 3.4375 21.25 3.4375C21.9959 3.4375 22.7113 3.73382 23.2387 4.26126C23.7662 4.78871 24.0625 5.50408 24.0625 6.25C24.0625 6.99592 23.7662 7.71129 23.2387 8.23874C22.7113 8.76618 21.9959 9.0625 21.25 9.0625C20.5041 9.0625 19.7887 8.76618 19.2613 8.23874C18.7338 7.71129 18.4375 6.99592 18.4375 6.25ZM6.25 16.875C6.25 13.4219 9.04688 10.625 12.5 10.625C15.9531 10.625 18.75 13.4219 18.75 16.875V17.5C18.75 18.1914 18.1914 18.75 17.5 18.75H7.5C6.80859 18.75 6.25 18.1914 6.25 17.5V16.875Z" fill="#C0934B"/>
</svg>
