<svg width="110" height="140" viewBox="0 0 110 140" fill="none" xmlns="http://www.w3.org/2000/svg">
<path d="M84.6817 13.2968L105.075 5.55455L104.902 -14.9873L33.1393 12.2571L33.3126 32.7989L60.8764 22.3344C68.0386 22.5479 75.1553 25.7349 80.6489 31.1238L46.7745 43.9841L46.9477 64.5259L89.9438 48.2027C92.5934 61.2697 86.6075 74.0311 74.8225 78.5052L60.1243 84.0853L66.9866 100.053L130.053 133.917L148.214 127.023L145.558 120.844L88.368 90.9223C103.978 83.9588 110.427 63.6019 104.257 42.7685L118.71 37.2813L118.537 16.7395L95.8993 25.3338C92.6382 20.6252 88.8233 16.5734 84.6817 13.2968Z" fill="#9E9E9E" fill-opacity="0.2"/>
</svg>
